#!OML:ASF E:/inclinewalkrobotboard/Project1/Captureday1/Session1/subject1.ASF
:FULLY-SPECIFIED
:DEGREES
176
root 0 0 0 85.62936051526029 -33.19069757507571 -56.11315089768334
lowerback -11.446910919242363 9.709700160202816 14.187102912552282
upperback -20.78740322622619 12.308637054004171 3.125066990589274
thorax -15.220092953252038 4.232869396909518 -3.784095850921873
lowerneck -8.951548466342347 11.969127835867909 6.2432906867125775
upperneck 10.1586956525604 14.264393489056983 9.157255470987518
head 4.527418399042418 7.721023631113611 2.790402146575018
rclavicle 9.374753286652426E-15 7.844212398296485E-15
rhumerus 33.898386375237486 -50.091262232381624 -14.70683305439892
rradius 19.91867315520036
rwrist 40.36259953092043
rhand 0.5718978798146188 2.327786232774324
rfingers 7.125020000000066
rthumb 26.138844945632385 -25.860539196374415
lclavicle 8.479534518422447E-16 2.0292159582411054E-15
lhumerus -7.135204034753759 12.979963051837558 -4.234909927120285
lradius 20.910702295462436
lwrist -38.90860810826625
lhand 0.5215456900041147 34.362030201183856
lfingers 7.125020000000039
lthumb 26.060198220140407 62.489323160737705
rfemur 206.39700064593052 -182.7194490305973 -174.30799789121042
rtibia 56.756069176953645
rfoot 58.349400674005466 -31.016573172679934
rtoes 15.766462759248435
lfemur -54.30879087721084 25.554020005805533 21.300015288352085
ltibia 22.987106518213835
lfoot -66.1107000532845 8.911868957372057
ltoes 60.36774602817321
177
root 0 0 0 85.62515813392466 -33.18814228231868 -56.10986425323514
lowerback -11.44517590274951 9.70997675468857 14.190661084553497
upperback -20.790016116684242 12.309005897745651 3.1265171777380925
thorax -15.223949946059477 4.232521450217889 -3.783775445153979
lowerneck -8.948416064095264 11.970433966559161 6.242594677329783
upperneck 10.157382828877257 14.26638712329721 9.160597649520607
head 4.526145203735047 7.722010728855881 2.791484470143997
rclavicle 9.404330755660627E-15 7.8611368441907E-15
rhumerus 33.851093540995436 -50.103862858503796 -14.643941571042156
rradius 19.909927358864614
rwrist 40.37144152576931
rhand 0.570782934932093 2.3252434870218854
rfingers 7.125020000000066
rthumb 26.13776454870945 -25.863758329680522
lclavicle 8.599580719929216E-16 2.0471225451936894E-15
lhumerus -7.169830959849833 12.984804320830023 -4.222605767210936
lradius 20.905631119537667
lwrist -38.92214876370515
lhand 0.5155136274170744 34.35586501337219
lfingers 7.125020000000039
lthumb 26.054521625352248 62.48444679927148
rfemur 206.38799318350203 -182.71051756683318 -174.3016536953982
rtibia 56.7492037909569
rfoot 58.33939283906817 -31.02526274509009
rtoes 15.77180210857054
lfemur -54.30810508556885 25.557700075981117 21.30089110422452
ltibia 22.9904236951644
lfoot -66.10766241347581 8.913718015954995
ltoes 60.37034389918502
178
root 0 0 0 85.6212474702522 -33.186293820866226 -56.10693699509902
lowerback -11.443497903753306 9.710218596819429 14.194006293671906
upperback -20.792242792839453 12.309338634256392 3.1278340545930257
thorax -15.227331534648131 4.23220438206928 -3.7835566643226572
lowerneck -8.945631253195307 11.97146214836061 6.241871521871545
upperneck 10.15665929048309 14.267968329182366 9.16357511759504
head 4.525177730520342 7.722792706373883 2.79245310673148
rclavicle 9.417287920157053E-15 7.875741237054832E-15
rhumerus 33.810797773205046 -50.11111562265083 -14.59133166832575
rradius 19.908437564582425
rwrist 40.37797366591033
rhand 0.5694999645843657 2.3244578723104654
rfingers 7.125020000000066
rthumb 26.136562115635478 -25.865170670185314
lclavicle 8.652981886398334E-16 2.063931986234401E-15
lhumerus -7.204250906631664 12.987714780581909 -4.206656692778758
lradius 20.903909076804755
lwrist -38.931485017592465
lhand 0.509494863283076 34.351712185300364
lfingers 7.125020000000039
lthumb 26.048831704151056 62.48146828548391
rfemur 206.3810231034727 -182.70530898081108 -174.29785902111044
rtibia 56.744358530530185
rfoot 58.32858387599087 -31.031018321231286
rtoes 15.774078668095807
lfemur -54.30822154786717 25.56013425096048 21.301449392590698
ltibia 22.992383950934684
lfoot -66.1035706220092 8.913237617445478
ltoes 60.37169427512427
179
root 0 0 0 85.63611240325261 -33.1971191057902 -56.11967132434762
lowerback -11.450054972047598 9.709165335158815 14.179889339099967
upperback -20.78134593444318 12.308071925463095 3.1222216711190076
thorax -15.21170831657384 4.233739734651145 -3.7846417190715806
lowerneck -8.958360955685228 11.966191890538123 6.244771636268207
upperneck 10.16370301600464 14.259836752038629 9.150121414557468
head 4.531091036850539 7.718787815525618 2.788051229694712
rclavicle 9.404345758689019E-15 7.84593634426126E-15
rhumerus 34.015662822596845 -50.06306100667172 -14.82296414560193
rradius 19.94429362719344
rwrist 40.365360773897635
rhand 0.5772812932328222 2.3312768416036995
rfingers 7.125020000000066
rthumb 26.144377009853294 -25.855069415067355
lclavicle 8.985709478770985E-16 2.020910657128349E-15
lhumerus -7.12073356819175 12.972653938664692 -4.237615972490765
lradius 20.926651385083613
lwrist -38.871724844272165
lhand 0.5277782951210923 34.37393903577761
lfingers 7.125020000000039
lthumb 26.065873888292582 62.49971504575027
rfemur 206.41742838323847 -182.73633292053165 -174.32715503537162
rtibia 56.77123334639832
rfoot 58.365124359902524 -30.994860648961104
rtoes 15.756375584072059
lfemur -54.299552710817515 25.547642161931485 21.296077747509813
ltibia 22.976442545885522
lfoot -66.1193350743253 8.90212494295345
ltoes 60.36441727635597
180
root 0 0 0 85.62937502602429 -33.19065450772109 -56.11315173964328
lowerback -11.44690956994443 9.70970072325522 14.187094814880298
upperback -20.78740896346533 12.308636343622547 3.125060619833202
thorax -15.220100084445532 4.232869301521782 -3.784098825107436
lowerneck -8.95154366625212 11.96913205903035 6.2432949609765265
upperneck 10.15867941749357 14.264399504396575 9.157253785039392
head 4.52741163616956 7.7210266365110005 2.7904011298678277
rclavicle 9.374925082265379E-15 7.844679258395668E-15
rhumerus 33.90071197405417 -50.09116451959312 -14.70876811976413
rradius 19.918574723086227
rwrist 40.362516864229704
rhand 0.5721169287409338 2.3276116735012398
rfingers 7.125020000000066
rthumb 26.13905466661618 -25.860662627511694
lclavicle 8.480624850912028E-16 2.029466171231053E-15
lhumerus -7.134145293693563 12.980092184719407 -4.2347774178514825
lradius 20.910733569628086
lwrist -38.908511564533796
lhand 0.5215993615645489 34.36210676209346
lfingers 7.125020000000039
lthumb 26.06024989624875 62.489400572102845
rfemur 206.39751794759636 -182.71978992884578 -174.30832181784956
rtibia 56.756255180146205
rfoot 58.34961548209229 -31.016072199013216
rtoes 15.766462824080115
lfemur -54.30889069604564 25.55400641017411 21.300013361687128
ltibia 22.98712540554716
lfoot -66.11080939636595 8.911897998119224
ltoes 60.367776041054725
